# xmcd
#
# Track frame offsets: 
#        150
#        13191
#        21369
#        34089
#        39343
#        45820
#        54069
#        61755
#        69247
#        83569
#        94312
#        104707
#        118755
#        134360
#        148582
#        157970
#        167295
#        171514
#        174543
#        182859
#        189478
#        197527
#
# Disc length: 2718 seconds
#
# Revision: 0
# Processed by: cddbd v1.5.1PL2 Copyright (c) Steve Scherf et al.
# Submitted via: ExactAudioCopy v0.95b3
#
DISCID=1e0a9c16
DTITLE=Jock Scot and Gareth Sager - The Caledonian Blues
DYEAR=2006
DGENRE=Blues
TTITLE0=Barcelona
TTITLE1=Vodka Turbo
TTITLE2=Lets Go Visit with the Rainforest
TTITLE3=Mad Poem
TTITLE4=Gothic Horror
TTITLE5=Backseat Blues
TTITLE6=Trip to Butlins
TTITLE7=Hot Chocolate
TTITLE8=Janet Planet
TTITLE9=Blues in the Company of Angels
TTITLE10=To Hello with a Hangover
TTITLE11=Misunderstanding
TTITLE12=They Wont Let Me Sing
TTITLE13=Tears in my Beer
TTITLE14=Silver Street Blues
TTITLE15=Winching Advice
TTITLE16=Girl on a Northern Dancefloor
TTITLE17=Ben Nevis Interlude
TTITLE18=Underdog
TTITLE19=Stewart Enquiry Drops 50 Grand
TTITLE20=Because I Say So
TTITLE21=On the Beach at Portobello
EXTD=
EXTT0=
EXTT1=
EXTT2=
EXTT3=
EXTT4=
EXTT5=
EXTT6=
EXTT7=
EXTT8=
EXTT9=
EXTT10=
EXTT11=
EXTT12=
EXTT13=
EXTT14=
EXTT15=
EXTT16=
EXTT17=
EXTT18=
EXTT19=
EXTT20=
EXTT21=
PLAYORDER=
